<?xml version="1.0" encoding="UTF-8" standalone="no"?>
<svg width="254px" height="48px" viewBox="0 0 254 48" version="1.1" xmlns="http://www.w3.org/2000/svg" xmlns:xlink="http://www.w3.org/1999/xlink" xmlns:sketch="http://www.bohemiancoding.com/sketch/ns">
    <!-- Generator: Sketch 3.4.2 (15855) - http://www.bohemiancoding.com/sketch -->
    <title>Imported Layers Copy 2</title>
    <desc>Created with Sketch.</desc>
    <defs></defs>
    <g id="Page-1" stroke="none" stroke-width="1" fill="none" fill-rule="evenodd" sketch:type="MSPage">
        <g id="Services-Scientific-Data-Warehouse" sketch:type="MSArtboardGroup" transform="translate(-131.000000, -35.000000)">
            <g id="Imported-Layers-Copy-2" sketch:type="MSLayerGroup" transform="translate(131.000000, 35.000000)">
                <g id="Group" transform="translate(66.000000, 15.000000)" sketch:type="MSShapeGroup">
                    <path d="M11.0977405,23.9022331 C10.7729914,23.9022331 10.5189796,23.8030191 10.337313,23.6013908 C10.1508234,23.3997624 10.0591862,23.1773311 10.0591862,22.9308964 C10.0591862,22.7980777 10.0077408,22.714866 9.90163465,22.6812613 C9.80035149,22.6460563 9.69906833,22.6876622 9.60903885,22.7980777 C9.28428967,23.2221374 8.80681192,23.5661858 8.17178258,23.8334234 C7.53675325,24.1038615 6.76989503,24.2366802 5.86799261,24.2366802 C5.06094267,24.2366802 4.32141483,24.0910597 3.65423211,23.8030191 C2.98383405,23.5117782 2.40507313,23.09892 1.9211647,22.5644448 C1.43886394,22.0267691 1.054631,21.3882793 0.778111897,20.6393739 C0.503200462,19.8952691 0.366548579,19.0727534 0.366548579,18.1798277 L0.366548579,15.2034088 C0.366548579,14.3328863 0.524100162,13.5087703 0.847241672,12.7278604 C1.17359852,11.9485507 1.62696124,11.2700552 2.21858351,10.7019752 C2.80538277,10.1338953 3.50150353,9.68423198 4.31176881,9.34658446 C5.11881876,9.01533784 6.00785983,8.84731419 6.97567669,8.84731419 L12.1362948,8.84731419 C12.4594364,8.84731419 12.7134481,8.93532658 12.8967224,9.1145518 C13.0816043,9.29377703 13.1716338,9.53701126 13.1716338,9.85065541 L13.1716338,22.9004921 C13.1716338,23.212536 13.0816043,23.4557703 12.8967224,23.6349955 C12.7134481,23.8142207 12.4594364,23.9022331 12.1362948,23.9022331 L11.0977405,23.9022331 L11.0977405,23.9022331 Z M10.0591862,12.0253615 C10.0591862,11.80133 9.94182638,11.6925146 9.71353735,11.6925146 L7.11554391,11.6925146 C5.95962975,11.6925146 5.06576567,12.0349628 4.43395167,12.7278604 C3.795707,13.4191577 3.47899617,14.2448739 3.47899617,15.2034088 L3.47899617,18.515875 C3.47899617,19.3623941 3.73943858,20.0552917 4.25710806,20.5897669 C4.77799289,21.1242421 5.50144403,21.3946802 6.42103082,21.3946802 C7.04802181,21.3946802 7.58498332,21.2890653 8.03191536,21.0746351 C8.48367041,20.8634054 8.85664967,20.5785653 9.15567614,20.2233153 C9.45791795,19.8648649 9.68299164,19.4712095 9.83250487,19.0327477 C9.98201811,18.5990867 10.0591862,18.1478232 10.0591862,17.6805574 L10.0591862,12.0253615 L10.0591862,12.0253615 Z" id="Fill-1" fill="#D0BC24"></path>
                    <path d="M20.8241392,23.9022331 C19.3466912,23.9022331 18.2791989,23.5117782 17.6232699,22.7308682 C16.9641255,21.9499583 16.636161,20.8906092 16.636161,19.5544212 L16.636161,2.1551723 C16.636161,1.84312838 16.7261904,1.59669369 16.9126801,1.41746847 C17.097562,1.24144369 17.3515738,1.15023086 17.6747153,1.15023086 L18.7132696,1.15023086 C19.0364111,1.15023086 19.2888152,1.24144369 19.4753048,1.41746847 C19.6585791,1.59669369 19.7518239,1.84312838 19.7518239,2.1551723 L19.7518239,19.8888682 C19.7518239,20.242518 19.8547147,20.5305586 20.0637117,20.7401881 C20.271101,20.9546182 20.5717352,21.0586329 20.9623988,21.0586329 L21.311263,21.0586329 C21.6344045,21.0586329 21.8868086,21.1482455 22.0716906,21.3242703 C22.2549648,21.5034955 22.3498173,21.7499302 22.3498173,22.0619741 L22.3498173,22.9004921 C22.3498173,23.212536 22.2549648,23.4557703 22.0716906,23.6349955 C21.8868086,23.8142207 21.6344045,23.9022331 21.311263,23.9022331 L20.8241392,23.9022331" id="Fill-2" fill="#D0BC24"></path>
                    <path d="M26.1583857,31.596116 C25.8320288,31.596116 25.5812324,31.5081036 25.3963505,31.3288784 C25.2098608,31.1512534 25.1182237,30.9048187 25.1182237,30.5927748 L25.1182237,9.85065541 C25.1182237,9.53701126 25.2098608,9.29377703 25.3963505,9.1145518 C25.5812324,8.93532658 25.8320288,8.84731419 26.1583857,8.84731419 L31.8688267,8.84731419 C32.7691215,8.84731419 33.5922481,8.99293468 34.3430296,9.28257545 C35.0938111,9.57221622 35.7336635,9.96747185 36.2674097,10.4699426 C36.7947252,10.9692128 37.2062885,11.5708975 37.4940613,12.2765968 C37.7834417,12.9774955 37.9281319,13.7312016 37.9281319,14.5345146 L37.9281319,18.2150327 C37.9281319,19.0199459 37.777011,19.7704516 37.4795922,20.4729505 C37.1773504,21.1738491 36.7657871,21.777134 36.2481176,22.281205 C35.7320558,22.7804752 35.1050648,23.1773311 34.3767907,23.4685721 C33.6533395,23.7582128 32.8623663,23.9022331 32.0086939,23.9022331 L28.5795355,23.9022331 C28.3496388,23.9022331 28.2354943,24.0142489 28.2354943,24.2366802 L28.2354943,30.5927748 C28.2354943,30.9048187 28.1406418,31.1512534 27.9557599,31.3288784 C27.7724856,31.5081036 27.5184738,31.596116 27.1953323,31.596116 L26.1583857,31.596116 L26.1583857,31.596116 Z M34.812469,14.5345146 C34.812469,13.6863953 34.5246962,13.0014989 33.9459353,12.476625 C33.3703897,11.9533514 32.6758766,11.6925146 31.8688267,11.6925146 L28.5795355,11.6925146 C28.3496388,11.6925146 28.2354943,11.80133 28.2354943,12.0253615 L28.2354943,20.7225856 C28.2354943,20.9482173 28.3496388,21.0586329 28.5795355,21.0586329 L31.8688267,21.0586329 C32.7450064,21.0586329 33.4572039,20.7977962 33.9989884,20.2729223 C34.5391653,19.7480484 34.812469,19.0599516 34.812469,18.2150327 L34.812469,14.5345146 L34.812469,14.5345146 Z" id="Fill-3" fill="#D0BC24"></path>
                    <path d="M52.1238511,23.9022331 C51.7974942,23.9022331 51.5450901,23.8142207 51.3602082,23.6349955 C51.1753262,23.4557703 51.0836891,23.212536 51.0836891,22.9004921 L51.0836891,14.4000957 C51.0836891,13.5519764 50.836108,12.8910833 50.3409459,12.4094155 C49.8425684,11.929348 49.1577014,11.6925146 48.2783063,11.6925146 L45.1980121,11.6925146 C44.9681154,11.6925146 44.8523632,11.80133 44.8523632,12.0253615 L44.8523632,22.9004921 C44.8523632,23.212536 44.7591184,23.4557703 44.5742365,23.6349955 C44.3909622,23.8142207 44.1353428,23.9022331 43.8154166,23.9022331 L42.7752546,23.9022331 C42.4488978,23.9022331 42.1981014,23.8142207 42.0132194,23.6349955 C41.8283374,23.4557703 41.7367003,23.212536 41.7367003,22.9004921 L41.7367003,2.1551723 C41.7367003,1.84312838 41.8283374,1.59669369 42.0132194,1.41746847 C42.1981014,1.24144369 42.4488978,1.15023086 42.7752546,1.15023086 L43.8154166,1.15023086 C44.1353428,1.15023086 44.3909622,1.24144369 44.5742365,1.41746847 C44.7591184,1.59669369 44.8523632,1.84312838 44.8523632,2.1551723 L44.8523632,8.51126689 C44.8523632,8.7336982 44.9681154,8.84731419 45.1980121,8.84731419 L48.4181735,8.84731419 C49.2718459,8.84731419 50.0579961,8.98653378 50.7734089,9.26497297 C51.4856064,9.54341216 52.1013437,9.93066667 52.6061518,10.4187354 C53.1125676,10.9100045 53.5080542,11.4956869 53.7845733,12.1741824 C54.0610924,12.8558784 54.199352,13.5983829 54.199352,14.4000957 L54.199352,22.9004921 C54.199352,23.212536 54.1061072,23.4557703 53.9212252,23.6349955 C53.7395586,23.8142207 53.4855469,23.9022331 53.1624054,23.9022331 L52.1238511,23.9022331" id="Fill-4" fill="#D0BC24"></path>
                    <path d="M69.0863689,23.9022331 C68.764835,23.9022331 68.5092156,23.8030191 68.3259413,23.6013908 C68.1394517,23.3997624 68.0478146,23.1773311 68.0478146,22.9308964 C68.0478146,22.7980777 67.9963691,22.714866 67.890263,22.6812613 C67.7889798,22.6460563 67.690912,22.6876622 67.5976672,22.7980777 C67.2745257,23.2221374 66.7938326,23.5661858 66.1604109,23.8334234 C65.5285969,24.1038615 64.7585234,24.2366802 63.8582286,24.2366802 C63.0511787,24.2366802 62.3132585,24.0910597 61.6428604,23.8030191 C60.9756777,23.5117782 60.3969168,23.09892 59.914616,22.5644448 C59.4274923,22.0267691 59.044867,21.3882793 58.7683479,20.6393739 C58.4918288,19.8952691 58.3551769,19.0727534 58.3551769,18.1798277 L58.3551769,15.2034088 C58.3551769,14.3328863 58.5143362,13.5087703 58.840693,12.7278604 C59.1622268,11.9485507 59.6188049,11.2700552 60.2056042,10.7019752 C60.7940111,10.1338953 61.4901319,9.68423198 62.3020048,9.34658446 C63.1106624,9.01533784 63.9980958,8.84731419 64.9675204,8.84731419 L70.1249232,8.84731419 C70.4480647,8.84731419 70.7036841,8.93532658 70.888566,9.1145518 C71.0702327,9.29377703 71.1650851,9.53701126 71.1650851,9.85065541 L71.1650851,22.9004921 C71.1650851,23.212536 71.0702327,23.4557703 70.888566,23.6349955 C70.7036841,23.8142207 70.4480647,23.9022331 70.1249232,23.9022331 L69.0863689,23.9022331 L69.0863689,23.9022331 Z M68.0478146,12.0253615 C68.0478146,11.80133 67.93367,11.6925146 67.7021657,11.6925146 L65.1041722,11.6925146 C63.9514734,11.6925146 63.0560017,12.0349628 62.42258,12.7278604 C61.7891583,13.4191577 61.4708398,14.2448739 61.4708398,15.2034088 L61.4708398,18.515875 C61.4708398,19.3623941 61.7280669,20.0552917 62.2473441,20.5897669 C62.7682289,21.1242421 63.4900723,21.3946802 64.4128745,21.3946802 C65.0350425,21.3946802 65.572004,21.2890653 66.023759,21.0746351 C66.4739064,20.8634054 66.8484933,20.5785653 67.1491275,20.2233153 C67.4481539,19.8648649 67.6732276,19.4712095 67.8227409,19.0327477 C67.9738618,18.5990867 68.0478146,18.1478232 68.0478146,17.6805574 L68.0478146,12.0253615 L68.0478146,12.0253615 Z" id="Fill-5" fill="#D0BC24"></path>
                    <path d="M85.8784737,20.924214 C86.0842554,21.1242421 86.1791079,21.3482736 86.1566005,21.5915079 C86.1292701,21.8395428 86.027987,22.0731757 85.843105,22.2972072 C85.4508337,22.74367 84.8447424,23.1773311 84.0264388,23.6013908 C83.2065275,24.0254505 82.2644334,24.2366802 81.2033717,24.2366802 C80.1873247,24.2366802 79.2934607,24.0766577 78.5201718,23.7534122 C77.7452752,23.4285664 77.0957769,22.9933052 76.565246,22.4476284 C76.0347152,21.9003514 75.6344055,21.2602613 75.3691401,20.5225574 C75.1038747,19.7848536 74.9736535,19.0199459 74.9736535,18.2150327 L74.9736535,14.5345146 C74.9736535,13.7312016 75.1151284,12.9614932 75.4029012,12.2269899 C75.6922816,11.4908863 76.108668,10.8459955 76.6504525,10.3019189 C77.1938447,9.75784234 77.8465584,9.32258108 78.6069859,8.99773536 C79.3674134,8.67448986 80.2323395,8.51126689 81.2033717,8.51126689 C82.1518965,8.51126689 82.9927075,8.67448986 83.7322353,8.99773536 C84.4685478,9.32258108 85.0826775,9.71623649 85.5649782,10.1851025 C85.7723676,10.3851306 85.8784737,10.6203637 85.8784737,10.8876014 C85.8784737,11.154839 85.7723676,11.3900721 85.5649782,11.5885 L84.9090492,12.2269899 C84.4685478,12.6494493 83.9942854,12.6366475 83.4894773,12.1917849 C83.2338579,11.9677534 82.9042857,11.7741261 82.5023684,11.6077027 C82.0972358,11.4380788 81.6663804,11.3564673 81.2033717,11.3564673 C80.0956876,11.3564673 79.2998913,11.6749122 78.8127676,12.3086014 C78.3304668,12.9438908 78.0861011,13.6863953 78.0861011,14.5345146 L78.0861011,18.2150327 C78.0861011,18.6374921 78.1423695,19.0471498 78.2436527,19.4360045 C78.3449358,19.8264595 78.5201718,20.1657072 78.7629298,20.455348 C79.0056879,20.746589 79.3223987,20.9722207 79.7162777,21.1418446 C80.1069413,21.308268 80.6037111,21.3946802 81.2033717,21.3946802 C81.8030323,21.3946802 82.3223094,21.2714628 82.7628108,21.0250282 C83.1984892,20.7801937 83.5473534,20.5433604 83.7997574,20.3225293 C84.331896,19.9000698 84.8174121,19.9000698 85.2530904,20.3225293 L85.8784737,20.924214" id="Fill-6" fill="#00647B"></path>
                    <path d="M90.1677352,23.9022331 C89.847809,23.9022331 89.5937973,23.8142207 89.4073076,23.6349955 C89.2240334,23.4557703 89.1291809,23.212536 89.1291809,22.9004921 L89.1291809,14.366491 C89.1291809,12.7406622 89.614697,11.4140755 90.5857292,10.3851306 C91.5519384,9.35938626 92.9023805,8.84731419 94.6354479,8.84731419 L95.8829992,8.84731419 C96.2061407,8.84731419 96.4601525,8.93532658 96.6418191,9.1145518 C96.8283087,9.29377703 96.9199459,9.53701126 96.9199459,9.85065541 L96.9199459,10.685973 C96.9199459,10.9996171 96.8283087,11.2444516 96.6418191,11.4220766 C96.4601525,11.6013018 96.2061407,11.6925146 95.8829992,11.6925146 L94.8444449,11.6925146 C93.9650498,11.6925146 93.3139438,11.9533514 92.8863038,12.476625 C92.4618791,13.0014989 92.2464515,13.6863953 92.2464515,14.5345146 L92.2464515,22.9004921 C92.2464515,23.212536 92.1548143,23.4557703 91.9699324,23.6349955 C91.7850504,23.8142207 91.5310387,23.9022331 91.2078972,23.9022331 L90.1677352,23.9022331" id="Fill-7" fill="#00647B"></path>
                    <path d="M108.86332,9.85065541 C108.86332,9.53701126 108.956565,9.29377703 109.141447,9.1145518 C109.326329,8.93532658 109.580341,8.84731419 109.901875,8.84731419 L110.943644,8.84731419 C111.265178,8.84731419 111.51919,8.93532658 111.704072,9.1145518 C111.887346,9.29377703 111.980591,9.53701126 111.980591,9.85065541 L111.980591,18.2150327 C111.980591,19.0199459 111.831078,19.7848536 111.530444,20.5225574 C111.231417,21.2602613 110.8086,21.9003514 110.265208,22.4476284 C109.723423,22.9933052 109.067494,23.4285664 108.292598,23.7534122 C107.520917,24.0766577 106.64956,24.2366802 105.678528,24.2366802 C104.712319,24.2366802 103.839354,24.0766577 103.066065,23.7534122 C102.294384,23.4285664 101.630417,22.9933052 101.075771,22.4476284 C100.521125,21.9003514 100.093485,21.2602613 99.7944584,20.5225574 C99.4954319,19.7848536 99.3459187,19.0199459 99.3459187,18.2150327 L99.3459187,9.85065541 C99.3459187,9.53701126 99.4375558,9.29377703 99.6224378,9.1145518 C99.8041044,8.93532658 100.059724,8.84731419 100.384473,8.84731419 L101.42142,8.84731419 C101.746169,8.84731419 101.995358,8.93532658 102.183455,9.1145518 C102.368337,9.29377703 102.458366,9.53701126 102.458366,9.85065541 L102.458366,18.2150327 C102.458366,19.0599516 102.720416,19.8024561 103.238086,20.4393457 C103.757363,21.0746351 104.572451,21.3946802 105.678528,21.3946802 C106.786212,21.3946802 107.594869,21.0746351 108.101285,20.4393457 C108.610916,19.8024561 108.86332,19.0599516 108.86332,18.2150327 L108.86332,9.85065541" id="Fill-8" fill="#00647B"></path>
                    <path d="M126.866,23.9022331 C126.544466,23.9022331 126.290455,23.8142207 126.103965,23.6349955 C125.920691,23.4557703 125.827446,23.212536 125.827446,22.9004921 L125.827446,14.5345146 C125.827446,13.6863953 125.557357,12.9438908 125.013965,12.3086014 C124.472181,11.6749122 123.647446,11.3564673 122.54137,11.3564673 C121.430471,11.3564673 120.608952,11.6749122 120.065559,12.3086014 C119.522167,12.9438908 119.252079,13.6863953 119.252079,14.5345146 L119.252079,22.9004921 C119.252079,23.212536 119.157226,23.4557703 118.973952,23.6349955 C118.78907,23.8142207 118.535058,23.9022331 118.211917,23.9022331 L117.173363,23.9022331 C116.850221,23.9022331 116.596209,23.8142207 116.40972,23.6349955 C116.224838,23.4557703 116.134808,23.212536 116.134808,22.9004921 L116.134808,14.5345146 C116.134808,13.7312016 116.29236,12.9614932 116.601032,12.2269899 C116.914528,11.4908863 117.346991,10.8459955 117.900029,10.3019189 C118.454675,9.75784234 119.121858,9.32258108 119.908008,8.99773536 C120.69255,8.67448986 121.56873,8.51126689 122.54137,8.51126689 C123.510795,8.51126689 124.386974,8.67448986 125.171517,8.99773536 C125.957667,9.32258108 126.62485,9.75784234 127.177888,10.3019189 C127.730926,10.8459955 128.166605,11.4908863 128.476885,12.2269899 C128.785557,12.9614932 128.944716,13.7312016 128.944716,14.5345146 L128.944716,22.9004921 C128.944716,23.212536 128.853079,23.4557703 128.668197,23.6349955 C128.481708,23.8142207 128.229304,23.9022331 127.90777,23.9022331 L126.866,23.9022331" id="Fill-9" fill="#00647B"></path>
                    <path d="M143.658105,20.924214 C143.867102,21.1242421 143.958739,21.3482736 143.934624,21.5915079 C143.913724,21.8395428 143.807618,22.0731757 143.625952,22.2972072 C143.230465,22.74367 142.625981,23.1773311 141.80607,23.6013908 C140.987767,24.0254505 140.044065,24.2366802 138.983003,24.2366802 C137.966956,24.2366802 137.0747,24.0766577 136.299803,23.7534122 C135.528122,23.4285664 134.877016,22.9933052 134.344877,22.4476284 C133.812739,21.9003514 133.414037,21.2602613 133.151987,20.5225574 C132.886721,19.7848536 132.751677,19.0199459 132.751677,18.2150327 L132.751677,14.5345146 C132.751677,13.7312016 132.897975,12.9614932 133.185748,12.2269899 C133.473521,11.4908863 133.886692,10.8459955 134.430084,10.3019189 C134.973476,9.75784234 135.62619,9.32258108 136.388225,8.99773536 C137.151868,8.67448986 138.015186,8.51126689 138.983003,8.51126689 C139.931528,8.51126689 140.773947,8.67448986 141.511867,8.99773536 C142.248179,9.32258108 142.862309,9.71623649 143.347825,10.1851025 C143.551999,10.3851306 143.658105,10.6203637 143.658105,10.8876014 C143.658105,11.154839 143.551999,11.3900721 143.347825,11.5885 L142.688681,12.2269899 C142.248179,12.6494493 141.77874,12.6366475 141.269109,12.1917849 C141.015097,11.9677534 140.687132,11.7741261 140.283607,11.6077027 C139.880082,11.4380788 139.444404,11.3564673 138.983003,11.3564673 C137.876927,11.3564673 137.079523,11.6749122 136.595614,12.3086014 C136.111706,12.9438908 135.870555,13.6863953 135.870555,14.5345146 L135.870555,18.2150327 C135.870555,18.6374921 135.920393,19.0471498 136.023284,19.4360045 C136.12939,19.8264595 136.299803,20.1657072 136.542561,20.455348 C136.785319,20.746589 137.10203,20.9722207 137.494301,21.1418446 C137.88818,21.308268 138.383342,21.3946802 138.983003,21.3946802 C139.585879,21.3946802 140.101941,21.2714628 140.542442,21.0250282 C140.981336,20.7801937 141.326985,20.5433604 141.580996,20.3225293 C142.113135,19.9000698 142.595436,19.9000698 143.034329,20.3225293 L143.658105,20.924214" id="Fill-10" fill="#00647B"></path>
                    <path d="M157.297571,23.9022331 C156.976037,23.9022331 156.71881,23.8142207 156.538751,23.6349955 C156.352261,23.4557703 156.260624,23.212536 156.260624,22.9004921 L156.260624,14.4000957 C156.260624,13.5519764 156.013043,12.8910833 155.514665,12.4094155 C155.019503,11.929348 154.331421,11.6925146 153.455241,11.6925146 L150.374947,11.6925146 C150.143443,11.6925146 150.026083,11.80133 150.026083,12.0253615 L150.026083,22.9004921 C150.026083,23.212536 149.936053,23.4557703 149.751171,23.6349955 C149.564682,23.8142207 149.313885,23.9022331 148.989136,23.9022331 L147.950582,23.9022331 C147.625833,23.9022331 147.371821,23.8142207 147.190154,23.6349955 C147.005272,23.4557703 146.912028,23.212536 146.912028,22.9004921 L146.912028,2.1551723 C146.912028,1.84312838 147.005272,1.59669369 147.190154,1.41746847 C147.371821,1.24144369 147.625833,1.15023086 147.950582,1.15023086 L148.989136,1.15023086 C149.313885,1.15023086 149.564682,1.24144369 149.751171,1.41746847 C149.936053,1.59669369 150.026083,1.84312838 150.026083,2.1551723 L150.026083,8.51126689 C150.026083,8.7336982 150.143443,8.84731419 150.374947,8.84731419 L153.595108,8.84731419 C154.447173,8.84731419 155.233323,8.98653378 155.947128,9.26497297 C156.662541,9.54341216 157.273456,9.93066667 157.781479,10.4187354 C158.29111,10.9100045 158.683381,11.4956869 158.961508,12.1741824 C159.238027,12.8558784 159.374679,13.5983829 159.374679,14.4000957 L159.374679,22.9004921 C159.374679,23.212536 159.283042,23.4557703 159.09816,23.6349955 C158.913278,23.8142207 158.659266,23.9022331 158.334517,23.9022331 L157.297571,23.9022331" id="Fill-11" fill="#00647B"></path>
                    <path d="M174.782581,20.6233716 C174.98997,20.8233998 175.08643,21.0474313 175.076784,21.2922658 C175.067138,21.5387005 174.965855,21.7707331 174.782581,21.9963649 C174.32118,22.5532432 173.63792,23.0653153 172.737626,23.5325811 C171.838939,24.0030473 170.768231,24.2366802 169.519072,24.2366802 C168.549647,24.2366802 167.678291,24.0878592 166.905002,23.7854167 C166.130105,23.4861745 165.469353,23.0653153 164.914707,22.5308401 C164.361669,21.9963649 163.932421,21.3706768 163.633395,20.6569764 C163.334368,19.9416757 163.183248,19.1831689 163.183248,18.3814561 L163.183248,14.4321002 C163.183248,13.6319876 163.316684,12.86708 163.58195,12.1437782 C163.847215,11.4188761 164.237879,10.7883874 164.757156,10.2507117 C165.278041,9.71623649 165.911462,9.29377703 166.662244,8.98173311 C167.413025,8.66808896 168.271521,8.51126689 169.240945,8.51126689 C170.213585,8.51126689 171.076903,8.66808896 171.838939,8.98173311 C172.602581,9.29377703 173.253688,9.71623649 173.795472,10.2507117 C174.337257,10.7883874 174.750428,11.4188761 175.043023,12.1437782 C175.332404,12.86708 175.473879,13.6319876 175.473879,14.4321002 L175.473879,16.4403829 C175.473879,16.7556273 175.382242,16.9988615 175.19736,17.1764865 C175.009262,17.3573119 174.756858,17.4437241 174.435324,17.4437241 L166.644559,17.4437241 C166.414663,17.4437241 166.298911,17.5573401 166.298911,17.7797714 L166.298911,18.3814561 C166.298911,19.2295755 166.560961,19.9416757 167.080238,20.5225574 C167.599515,21.1034392 168.411388,21.3946802 169.519072,21.3946802 C170.395252,21.3946802 171.076903,21.2426588 171.564027,20.9418164 C172.046328,20.6393739 172.416092,20.3577342 172.670104,20.0872962 C172.925723,19.8408615 173.178127,19.7256453 173.432139,19.7384471 C173.682935,19.7480484 173.916047,19.8536633 174.123437,20.0552917 L174.782581,20.6233716 L174.782581,20.6233716 Z M172.358216,14.4321002 C172.358216,13.5855811 172.117065,12.8606791 171.631549,12.2589944 C171.146033,11.6573097 170.348629,11.3564673 169.240945,11.3564673 C168.157376,11.3564673 167.395341,11.6573097 166.956447,12.2589944 C166.519161,12.8606791 166.298911,13.5855811 166.298911,14.4321002 L166.298911,14.6001239 C166.298911,14.8257556 166.414663,14.9361712 166.644559,14.9361712 L172.009352,14.9361712 C172.242464,14.9361712 172.358216,14.8257556 172.358216,14.6001239 L172.358216,14.4321002 L172.358216,14.4321002 Z" id="Fill-12" fill="#00647B"></path>
                    <path d="M180.321001,23.9022331 C179.996252,23.9022331 179.743848,23.8142207 179.558966,23.6349955 C179.375692,23.4557703 179.282447,23.212536 179.282447,22.9004921 L179.282447,14.366491 C179.282447,12.7406622 179.764748,11.4140755 180.737388,10.3851306 C181.703597,9.35938626 183.054039,8.84731419 184.787106,8.84731419 L186.034658,8.84731419 C186.356192,8.84731419 186.610203,8.93532658 186.795085,9.1145518 C186.979967,9.29377703 187.069997,9.53701126 187.069997,9.85065541 L187.069997,10.685973 C187.069997,10.9996171 186.979967,11.2444516 186.795085,11.4220766 C186.610203,11.6013018 186.356192,11.6925146 186.034658,11.6925146 L184.996103,11.6925146 C184.116708,11.6925146 183.465602,11.9533514 183.036355,12.476625 C182.613538,13.0014989 182.39811,13.6863953 182.39811,14.5345146 L182.39811,22.9004921 C182.39811,23.212536 182.306473,23.4557703 182.119983,23.6349955 C181.935101,23.8142207 181.681089,23.9022331 181.359556,23.9022331 L180.321001,23.9022331" id="Fill-13" fill="#00647B"></path>
                </g>
                <path d="M43.3625051,39.487213 C42.4572596,38.5272599 41.9340443,37.3513431 41.7720967,36.1392603 C38.9816152,38.1097991 35.0938349,37.785337 32.6874598,35.2309731 C30.6454668,33.0672036 30.2841991,29.9434811 31.5320261,27.4304499 C30.5032436,27.1473206 29.5336343,26.594495 28.7498495,25.7637068 C26.4825833,23.3550408 26.6019677,19.5699942 29.0228766,17.3121928 C29.59696,16.7759003 30.2478647,16.3770393 30.9382182,16.1094098 C28.7872221,13.7958091 28.9076446,10.1853934 31.2237028,8.02265727 C31.4032985,7.85525963 31.5932755,7.70646173 31.7863668,7.5669637 L27.4594595,0.0299367938 L0,47.8508949 L54.9189189,47.8508949 L50.7684929,40.6228303 C48.3859947,41.9527115 45.3162574,41.5579837 43.3625051,39.487213 Z" id="Fill-14" fill="#D0BC24" sketch:type="MSShapeGroup"></path>
            </g>
        </g>
    </g>
</svg>